<svg xmlns="http://www.w3.org/2000/svg" width="24" height="24" viewBox="0 0 24 24">
    <title>space</title>
    <path d="M1,18.2217a1,1,0,0,1-1-1V7.0005a1,1,0,0,1,.52-.877L11.522.0952a1.0029,1.0029,0,0,1,.9546-.0034l10.997,5.9214a1,1,0,0,1,.5264.88V17.207a1,1,0,0,1-1.4668.8848l-10.5117-5.543L1.4658,18.1064A.9957.9957,0,0,1,1,18.2217ZM2,7.5928v7.9726l9.5562-5.0317a1.0021,1.0021,0,0,1,.9321,0L22,15.5488V7.4907L12.0068,2.11Z"/>
    <path d="M11.9443,24.0283a1.0055,1.0055,0,0,1-.4687-.1162L.5313,18.1055a1,1,0,0,1,.9375-1.7676l10.4775,5.56,10.5879-5.5752a1,1,0,1,1,.9316,1.77L12.41,23.9131A.9946.9946,0,0,1,11.9443,24.0283Z"/>
    <path d="M12.022,12.4185a1,1,0,0,1-1-1V.9722a1,1,0,1,1,1.9995,0V11.4185A1,1,0,0,1,12.022,12.4185Z"/>
    <path d="M5.541,15.4775h-2V8.5532a1,1,0,0,1,.5806-.9077L7.4849,6.0923A1,1,0,0,1,8.9043,7v6.8867h-2V8.5635L5.541,9.1929Z"/>
    <path d="M18.6943,12.4185a.998.998,0,0,1-.4882-.1275l-2.7588-1.5454a.9993.9993,0,0,1-.5118-.8726V6.0405a1,1,0,0,1,1.4434-.8965l2.7588,1.3638a1,1,0,0,1,.5566.8965v4.0142a1,1,0,0,1-1,1ZM16.9355,9.2871l.7588.4248V8.0254l-.7588-.375Z"/>
</svg>